<svg width="640" height="400" viewBox="0 0 640 400" fill="none" xmlns="http://www.w3.org/2000/svg" role="img" aria-label="Healthy snacks illustration">
  <defs>
    <linearGradient id="hs_fresh" x1="110" y1="70" x2="520" y2="330" gradientUnits="userSpaceOnUse">
      <stop stop-color="#10B981" stop-opacity="0.75"/>
      <stop offset="1" stop-color="#F59E0B" stop-opacity="0.35"/>
    </linearGradient>
    <linearGradient id="hs_bowl" x1="220" y1="190" x2="420" y2="340" gradientUnits="userSpaceOnUse">
      <stop stop-color="#FFF7ED"/>
      <stop offset="1" stop-color="#FEF3C7"/>
    </linearGradient>
  </defs>

  <!-- soft backdrop blob -->
  <path d="M96 232c0-92 84-168 188-168h72c104 0 188 76 188 168s-84 168-188 168h-72c-104 0-188-76-188-168Z" fill="url(#hs_fresh)" fill-opacity="0.14"/>

  <!-- leaf accent -->
  <g transform="translate(96 86)">
    <path d="M120 18c40 0 78 24 92 56-42 22-96 12-128-20-22-22-26-46-24-60 16 10 36 24 60 24Z" fill="#10B981" fill-opacity="0.25"/>
    <path d="M72 18c16 10 34 26 44 40" stroke="#059669" stroke-opacity="0.55" stroke-width="3" stroke-linecap="round"/>
    <path d="M104 40c-12 10-22 22-30 36" stroke="#059669" stroke-opacity="0.40" stroke-width="3" stroke-linecap="round"/>
  </g>

  <!-- bowl -->
  <g transform="translate(170 154)">
    <path d="M48 120c12 72 70 128 150 128s138-56 150-128" fill="url(#hs_bowl)" stroke="#F59E0B" stroke-opacity="0.30" stroke-width="2"/>
    <path d="M34 120h328" stroke="#CBD5E1" stroke-opacity="0.55" stroke-width="8" stroke-linecap="round"/>
    <path d="M60 134c18 52 70 92 138 92s120-40 138-92" stroke="#10B981" stroke-opacity="0.22" stroke-width="10" stroke-linecap="round"/>
  </g>

  <!-- fruit/nuts shapes -->
  <g transform="translate(250 150)">
    <circle cx="60" cy="44" r="24" fill="#10B981" fill-opacity="0.35" stroke="#059669" stroke-opacity="0.35" stroke-width="2"/>
    <circle cx="112" cy="56" r="20" fill="#F59E0B" fill-opacity="0.30" stroke="#D97706" stroke-opacity="0.30" stroke-width="2"/>
    <circle cx="150" cy="34" r="18" fill="#34D399" fill-opacity="0.28" stroke="#059669" stroke-opacity="0.30" stroke-width="2"/>
    <path d="M84 22c6-10 18-18 30-18" stroke="#059669" stroke-opacity="0.45" stroke-width="3" stroke-linecap="round"/>
    <path d="M66 70c18 10 42 10 60 0" stroke="#0F172A" stroke-opacity="0.14" stroke-width="4" stroke-linecap="round"/>
    <path d="M34 78c10-6 18-6 28 0" stroke="#0F172A" stroke-opacity="0.12" stroke-width="4" stroke-linecap="round"/>
  </g>

  <!-- water bottle -->
  <g transform="translate(430 126)">
    <path d="M54 8h44" stroke="#10B981" stroke-opacity="0.35" stroke-width="10" stroke-linecap="round"/>
    <path d="M60 20h32" stroke="#0F172A" stroke-opacity="0.10" stroke-width="6" stroke-linecap="round"/>
    <path d="M52 28h56l8 18v188c0 20-16 36-36 36H80c-20 0-36-16-36-36V46l8-18Z" fill="#E0F2FE" fill-opacity="0.55" stroke="#10B981" stroke-opacity="0.25" stroke-width="2"/>
    <path d="M72 120c10-12 26-12 36 0s26 12 36 0" stroke="#0EA5E9" stroke-opacity="0.35" stroke-width="8" stroke-linecap="round"/>
  </g>

  <!-- subtle check -->
  <g transform="translate(86 286)" opacity="0.65">
    <circle cx="36" cy="36" r="28" fill="#10B981" fill-opacity="0.10" stroke="#10B981" stroke-opacity="0.35" stroke-width="2"/>
    <path d="M22 36l9 9 19-21" stroke="#059669" stroke-opacity="0.70" stroke-width="4" stroke-linecap="round" stroke-linejoin="round"/>
  </g>
</svg>

