<svg width="640" height="400" viewBox="0 0 640 400" fill="none" xmlns="http://www.w3.org/2000/svg" role="img" aria-label="Junk snacks illustration">
  <defs>
    <linearGradient id="js_warn" x1="120" y1="40" x2="520" y2="360" gradientUnits="userSpaceOnUse">
      <stop stop-color="#F59E0B" stop-opacity="0.85"/>
      <stop offset="1" stop-color="#FB7185" stop-opacity="0.65"/>
    </linearGradient>
    <linearGradient id="js_soda" x1="420" y1="70" x2="540" y2="320" gradientUnits="userSpaceOnUse">
      <stop stop-color="#CBD5E1"/>
      <stop offset="1" stop-color="#94A3B8"/>
    </linearGradient>
  </defs>

  <!-- soft backdrop blob -->
  <path d="M96 232c0-92 84-168 188-168h72c104 0 188 76 188 168s-84 168-188 168h-72c-104 0-188-76-188-168Z" fill="#0F172A" fill-opacity="0.04"/>
  <path d="M140 248c0-72 66-130 148-130h64c82 0 148 58 148 130s-66 130-148 130h-64c-82 0-148-58-148-130Z" fill="url(#js_warn)" fill-opacity="0.10"/>

  <!-- fries -->
  <g transform="translate(150 120)">
    <rect x="22" y="130" width="170" height="120" rx="22" fill="#F1F5F9" stroke="#CBD5E1" stroke-width="2"/>
    <path d="M45 140h124l-12 92c-1 8-8 18-18 18H71c-10 0-17-10-18-18l-8-92Z" fill="#E2E8F0"/>
    <path d="M62 112c0-6 5-11 11-11h74c6 0 11 5 11 11v28H62v-28Z" fill="#FB7185" fill-opacity="0.22"/>
    <path d="M62 112c0-6 5-11 11-11h74c6 0 11 5 11 11" stroke="#FB7185" stroke-opacity="0.35" stroke-width="2"/>

    <!-- fries sticks -->
    <g stroke="#F59E0B" stroke-opacity="0.55" stroke-width="10" stroke-linecap="round">
      <path d="M54 26v98"/>
      <path d="M82 10v114"/>
      <path d="M110 22v102"/>
      <path d="M138 6v118"/>
      <path d="M166 18v106"/>
    </g>
    <g stroke="#0F172A" stroke-opacity="0.12" stroke-width="10" stroke-linecap="round">
      <path d="M54 26v98"/>
      <path d="M82 10v114"/>
      <path d="M110 22v102"/>
      <path d="M138 6v118"/>
      <path d="M166 18v106"/>
    </g>
  </g>

  <!-- soda cup -->
  <g transform="translate(388 92)">
    <path d="M38 28h142l-18 254c-1 14-13 26-27 26H88c-14 0-26-12-27-26L38 28Z" fill="url(#js_soda)" fill-opacity="0.65" stroke="#94A3B8" stroke-width="2"/>
    <path d="M48 28h122l-3 36H51l-3-36Z" fill="#E2E8F0"/>
    <path d="M96 -2h22l18 40h-22L96 -2Z" fill="#CBD5E1" stroke="#94A3B8" stroke-width="2" stroke-linejoin="round"/>
    <path d="M66 106c20-20 44-20 64 0" stroke="#FB7185" stroke-opacity="0.35" stroke-width="10" stroke-linecap="round"/>
  </g>

  <!-- donut -->
  <g transform="translate(298 182)">
    <circle cx="52" cy="52" r="52" fill="#E2E8F0"/>
    <circle cx="52" cy="52" r="34" fill="#F8FAFC"/>
    <circle cx="52" cy="52" r="16" fill="#CBD5E1"/>
    <path d="M20 52c10-18 54-18 64 0" stroke="#F59E0B" stroke-opacity="0.45" stroke-width="10" stroke-linecap="round"/>
    <path d="M18 40c10-18 58-18 68 0" stroke="#FB7185" stroke-opacity="0.30" stroke-width="6" stroke-linecap="round"/>
  </g>

  <!-- subtle warning mark -->
  <g transform="translate(72 74)" opacity="0.55">
    <path d="M40 4 4 66a8 8 0 0 0 7 12h58a8 8 0 0 0 7-12L40 4Z" fill="#F59E0B" fill-opacity="0.12" stroke="#F59E0B" stroke-opacity="0.35" stroke-width="2"/>
    <path d="M40 28v18" stroke="#0F172A" stroke-opacity="0.35" stroke-width="3" stroke-linecap="round"/>
    <circle cx="40" cy="56" r="2" fill="#0F172A" fill-opacity="0.35"/>
  </g>
</svg>

